<svg width="110" height="110" viewBox="0 0 110 110" fill="none" xmlns="http://www.w3.org/2000/svg">
<path fill-rule="evenodd" clip-rule="evenodd" d="M60.156 5.15625C60.156 3.78873 59.6127 2.47722 58.6457 1.51023C57.6788 0.543246 56.3672 0 54.9997 0C53.6322 0 52.3207 0.543246 51.3537 1.51023C50.3867 2.47722 49.8435 3.78873 49.8435 5.15625V13.75H43.0785C40.9816 13.75 38.926 14.3 37.1041 15.3313L28.2491 20.3981C27.9875 20.5478 27.6911 20.626 27.3897 20.625H12.031C10.6635 20.625 9.35194 21.1682 8.38496 22.1352C7.41797 23.1022 6.87472 24.4137 6.87472 25.7812C6.87472 27.1488 7.41797 28.4603 8.38496 29.4273C9.35194 30.3943 10.6635 30.9375 12.031 30.9375H14.9735L0.453474 63.195C0.0245982 64.1493 -0.103814 65.2115 0.0852924 66.2406C0.274399 67.2696 0.772074 68.2168 1.51222 68.9562L5.15597 65.3125L1.51222 68.9562V68.9631L1.52597 68.9769L1.53972 68.9906L1.58097 69.0319L1.69097 69.135L2.00035 69.41C3.44624 70.6219 5.02911 71.6602 6.7166 72.5037C11.0458 74.6145 15.8087 75.6834 20.6247 75.625C26.6747 75.625 31.3222 74.1125 34.5328 72.5037C36.2203 71.6601 37.8032 70.6218 39.2491 69.41L39.5585 69.135L39.6685 69.0319L39.7097 68.9906L39.7235 68.9769L39.7303 68.9631L36.0935 65.3125L39.7372 68.9562C40.4774 68.2168 40.975 67.2696 41.1642 66.2406C41.3533 65.2115 41.2248 64.1493 40.796 63.195L26.276 30.9375H27.3897C29.4866 30.9375 31.5422 30.3875 33.3641 29.3563L42.226 24.2894C42.4856 24.1409 42.7794 24.0627 43.0785 24.0625H49.8435V89.375H32.656C31.2885 89.375 29.9769 89.9183 29.01 90.8852C28.043 91.8522 27.4997 93.1637 27.4997 94.5312C27.4997 95.8988 28.043 97.2103 29.01 98.1773C29.9769 99.1442 31.2885 99.6875 32.656 99.6875H77.3435C78.711 99.6875 80.0225 99.1442 80.9895 98.1773C81.9565 97.2103 82.4997 95.8988 82.4997 94.5312C82.4997 93.1637 81.9565 91.8522 80.9895 90.8852C80.0225 89.9183 78.711 89.375 77.3435 89.375H60.156V24.0625H66.921C67.22 24.0627 67.5139 24.1409 67.7735 24.2894L76.6422 29.3494C78.4572 30.3944 80.5128 30.9375 82.6097 30.9375H83.7235L69.2035 63.195C68.7746 64.1493 68.6462 65.2115 68.8353 66.2406C69.0244 67.2696 69.5221 68.2168 70.2622 68.9562L73.906 65.3125L70.2622 68.9562V68.9631L70.276 68.9769L70.2897 68.9906L70.331 69.0319L70.441 69.135L70.7504 69.41C72.1964 70.6217 73.7792 71.66 75.4666 72.5037C79.7958 74.6145 84.5587 75.6834 89.3747 75.625C95.4247 75.625 100.072 74.1125 103.283 72.5037C104.97 71.6603 106.553 70.622 107.999 69.41L108.308 69.135L108.377 69.0662L108.418 69.0319L108.46 68.9906L108.473 68.9769L108.48 68.9631L104.843 65.3125L108.487 68.9562C109.227 68.2168 109.725 67.2696 109.914 66.2406C110.103 65.2115 109.975 64.1493 109.546 63.195L95.0329 30.9375H97.9685C99.336 30.9375 100.648 30.3943 101.614 29.4273C102.581 28.4603 103.125 27.1488 103.125 25.7812C103.125 24.4137 102.581 23.1022 101.614 22.1352C100.648 21.1682 99.336 20.625 97.9685 20.625H82.6097C82.3107 20.6248 82.0168 20.5466 81.7572 20.3981L72.8885 15.3381C71.0734 14.2997 69.019 13.7524 66.9278 13.75H60.156V5.15625ZM11.6529 63.4356C13.6122 64.3638 16.5891 65.3125 20.6247 65.3125C24.6603 65.3125 27.6372 64.3638 29.5966 63.4356L20.6247 43.4981L11.6529 63.4356ZM80.4028 63.4356C82.3622 64.3638 85.3391 65.3125 89.3747 65.3125C93.4103 65.3125 96.3872 64.3638 98.3466 63.4356L89.3747 43.4981L80.4028 63.4356Z" fill="black"/>
</svg>
