<svg width="110" height="110" viewBox="0 0 110 110" fill="none" xmlns="http://www.w3.org/2000/svg">
<path d="M103.125 96.25C103.125 96.25 110 96.25 110 89.375C110 82.5 103.125 61.875 75.625 61.875C48.125 61.875 41.25 82.5 41.25 89.375C41.25 96.25 48.125 96.25 48.125 96.25H103.125ZM48.2762 89.375C48.2255 89.368 48.175 89.3588 48.125 89.3475C48.1319 87.5325 49.2731 82.2663 53.35 77.5225C57.145 73.0744 63.8138 68.75 75.625 68.75C87.4294 68.75 94.0981 73.0812 97.9 77.5225C101.977 82.2663 103.111 87.5394 103.125 89.3475L103.07 89.3613C103.038 89.3667 103.006 89.3712 102.974 89.375H48.2762ZM75.625 48.125C79.2717 48.125 82.7691 46.6763 85.3477 44.0977C87.9263 41.5191 89.375 38.0217 89.375 34.375C89.375 30.7283 87.9263 27.2309 85.3477 24.6523C82.7691 22.0737 79.2717 20.625 75.625 20.625C71.9783 20.625 68.4809 22.0737 65.9023 24.6523C63.3237 27.2309 61.875 30.7283 61.875 34.375C61.875 38.0217 63.3237 41.5191 65.9023 44.0977C68.4809 46.6763 71.9783 48.125 75.625 48.125ZM96.25 34.375C96.25 37.0835 95.7165 39.7655 94.68 42.2678C93.6435 44.7702 92.1243 47.0439 90.2091 48.9591C88.2939 50.8743 86.0202 52.3935 83.5178 53.43C81.0155 54.4665 78.3335 55 75.625 55C72.9165 55 70.2345 54.4665 67.7322 53.43C65.2298 52.3935 62.9561 50.8743 61.0409 48.9591C59.1257 47.0439 57.6065 44.7702 56.57 42.2678C55.5335 39.7655 55 37.0835 55 34.375C55 28.9049 57.173 23.6589 61.0409 19.7909C64.9089 15.923 70.1549 13.75 75.625 13.75C81.0951 13.75 86.3411 15.923 90.2091 19.7909C94.077 23.6589 96.25 28.9049 96.25 34.375ZM47.685 63.8C44.9349 62.934 42.1 62.3647 39.2287 62.1019C37.6154 61.9485 35.9956 61.8727 34.375 61.875C6.875 61.875 0 82.5 0 89.375C0 93.9606 2.28938 96.25 6.875 96.25H35.86C34.8408 94.1037 34.3325 91.7506 34.375 89.375C34.375 82.4313 36.9669 75.3362 41.8688 69.41C43.5394 67.3887 45.485 65.4981 47.685 63.8ZM33.825 68.75C29.7561 74.8637 27.558 82.0312 27.5 89.375H6.875C6.875 87.5875 8.0025 82.2937 12.1 77.5225C15.8469 73.15 22.3575 68.8875 33.825 68.7569V68.75ZM10.3125 37.8125C10.3125 32.3424 12.4855 27.0964 16.3534 23.2284C20.2214 19.3605 25.4674 17.1875 30.9375 17.1875C36.4076 17.1875 41.6536 19.3605 45.5216 23.2284C49.3895 27.0964 51.5625 32.3424 51.5625 37.8125C51.5625 43.2826 49.3895 48.5286 45.5216 52.3966C41.6536 56.2645 36.4076 58.4375 30.9375 58.4375C25.4674 58.4375 20.2214 56.2645 16.3534 52.3966C12.4855 48.5286 10.3125 43.2826 10.3125 37.8125ZM30.9375 24.0625C27.2908 24.0625 23.7934 25.5112 21.2148 28.0898C18.6362 30.6684 17.1875 34.1658 17.1875 37.8125C17.1875 41.4592 18.6362 44.9566 21.2148 47.5352C23.7934 50.1138 27.2908 51.5625 30.9375 51.5625C34.5842 51.5625 38.0816 50.1138 40.6602 47.5352C43.2388 44.9566 44.6875 41.4592 44.6875 37.8125C44.6875 34.1658 43.2388 30.6684 40.6602 28.0898C38.0816 25.5112 34.5842 24.0625 30.9375 24.0625Z" fill="black"/>
</svg>
