<svg xmlns="http://www.w3.org/2000/svg" viewBox="0 0 247.3 633.4"><defs><style>.cls-1,.cls-11,.cls-12,.cls-2,.cls-7{fill:none;}.cls-1{stroke:#6b6b6b;}.cls-1,.cls-11,.cls-12,.cls-2,.cls-5,.cls-7,.cls-8{stroke-miterlimit:10;}.cls-1,.cls-11{stroke-width:6px;}.cls-2{stroke:#5b1f0a;stroke-width:4px;}.cls-3,.cls-5{fill:#e8e8e8;}.cls-4{fill:#181a4a;}.cls-12,.cls-5,.cls-7{stroke:#515151;}.cls-5{stroke-width:1.5px;}.cls-6{fill:#515151;}.cls-7{stroke-width:1.33px;}.cls-8{stroke:#e8e8e8;stroke-width:1.42px;}.cls-9{fill:#66280d;}.cls-10{fill:#874420;}.cls-11{stroke:#9b9b9b;}.cls-12{stroke-width:2px;}</style></defs><title>Recurso 9</title><g id="Capa_2" data-name="Capa 2"><g id="Capa_3" data-name="Capa 3"><line class="cls-1" x1="86.97" y1="400.19" x2="86.97" y2="608.34"/><line class="cls-1" x1="160.33" y1="400.19" x2="160.33" y2="608.34"/><path class="cls-2" d="M150.83,461.29v7.91H96.47v-7.91a7.8,7.8,0,0,1,7.8-7.8H143A7.81,7.81,0,0,1,150.83,461.29Z"/><rect class="cls-3" x="11.82" y="161.87" width="223.65" height="238.31" rx="26.91"/><polygon class="cls-4" points="145.19 162.39 134.42 181.05 112.87 181.05 102.1 162.39 145.19 162.39"/><rect class="cls-3" x="24.89" y="40.07" width="194.63" height="121.8" rx="26.02"/><rect class="cls-3" x="120.1" y="6.24" width="4.21" height="34.08"/><circle class="cls-5" cx="122.21" cy="6.24" r="5.49"/><path class="cls-6" d="M13.15,78.28h7.47a4.25,4.25,0,0,1,4.25,4.25v36.29a4.25,4.25,0,0,1-4.25,4.25H13.15a0,0,0,0,1,0,0V78.28a0,0,0,0,1,0,0Z" transform="translate(38.03 201.36) rotate(-180)"/><path class="cls-6" d="M219.61,79h7.47a4.25,4.25,0,0,1,4.25,4.25v36.29a4.25,4.25,0,0,1-4.25,4.25h-7.47a0,0,0,0,1,0,0V79A0,0,0,0,1,219.61,79Z"/><g id="Lentes"><rect class="cls-7" x="150.45" y="72.37" width="50.82" height="28.61" rx="4.25"/><rect class="cls-7" x="46.03" y="72.37" width="50.82" height="28.61" rx="4.25"/></g><rect class="cls-8" x="65.69" y="82.36" width="8.62" height="8.62"/><rect class="cls-8" x="170.11" y="82.36" width="8.62" height="8.62"/><path d="M101,127.55c0,4,9.48,7.3,21.2,7.3s21.19-3.26,21.19-7.3Z"/><polygon class="cls-4" points="134.42 182.05 134.42 313.62 123.43 321.93 112.88 313.62 112.88 182.05 134.42 182.05"/><rect class="cls-9" x="28.61" y="501.46" width="190.07" height="84.74" rx="12.69"/><path class="cls-10" d="M223.67,479.41v36.64a12.21,12.21,0,0,1-12.21,12.21H35.83a12.21,12.21,0,0,1-12.2-12.21V479.41a12.21,12.21,0,0,1,12.2-12.21H211.46A12.21,12.21,0,0,1,223.67,479.41Z"/><g id="Seguros_maleta" data-name="Seguros maleta"><rect x="56.7" y="519.77" width="10.95" height="16.98"/><rect x="179.65" y="519.77" width="10.95" height="16.98"/></g><path class="cls-11" d="M242,207.55C242,342,196.9,450.72,141.11,450.72"/><path class="cls-11" d="M5.91,207.55C5.91,342,51.06,450.72,106.85,450.72"/><path class="cls-6" d="M0,199.69H5.91a5.91,5.91,0,0,1,5.91,5.91v13.46A5.91,5.91,0,0,1,5.91,225H0a0,0,0,0,1,0,0V199.69a0,0,0,0,1,0,0Z" transform="translate(11.82 424.65) rotate(180)"/><path class="cls-6" d="M235.47,199.69h5.91a5.91,5.91,0,0,1,5.91,5.91v13.46a5.91,5.91,0,0,1-5.91,5.91h-5.91a0,0,0,0,1,0,0V199.69A0,0,0,0,1,235.47,199.69Z"/><path class="cls-6" d="M99.22,450.71a7.63,7.63,0,0,0,13.57,4.78H107.5c0-2.21.53-4,1.2-4h5.73a6.79,6.79,0,0,0,0-.78,7.63,7.63,0,0,0-15.25,0Z"/><path class="cls-6" d="M148.73,450.71a7.63,7.63,0,0,1-13.57,4.78h5.29c0-2.21-.53-4-1.2-4h-5.73a6.79,6.79,0,0,1,0-.78,7.63,7.63,0,0,1,15.25,0Z"/><path d="M65.25,608.34H90a0,0,0,0,1,0,0V621.4a12,12,0,0,1-12,12H65.25a12,12,0,0,1-12-12v-1.06A12,12,0,0,1,65.25,608.34Z"/><path d="M169.33,608.34H182a12,12,0,0,1,12,12V633.4a0,0,0,0,1,0,0H169.33a12,12,0,0,1-12-12v-1.06A12,12,0,0,1,169.33,608.34Z" transform="translate(351.37 1241.75) rotate(-180)"/><line class="cls-12" x1="96.85" y1="79.91" x2="150.45" y2="79.91"/></g></g></svg>