<svg width="110" height="110" viewBox="0 0 110 110" fill="none" xmlns="http://www.w3.org/2000/svg">
<path d="M101.514 44.2578H74.0137C73.541 44.2578 73.1543 44.6445 73.1543 45.1172V50.2734C73.1543 50.7461 73.541 51.1328 74.0137 51.1328H101.514C101.986 51.1328 102.373 50.7461 102.373 50.2734V45.1172C102.373 44.6445 101.986 44.2578 101.514 44.2578ZM87.1191 58.8672H74.0137C73.541 58.8672 73.1543 59.2539 73.1543 59.7266V64.8828C73.1543 65.3555 73.541 65.7422 74.0137 65.7422H87.1191C87.5918 65.7422 87.9785 65.3555 87.9785 64.8828V59.7266C87.9785 59.2539 87.5918 58.8672 87.1191 58.8672ZM51.2725 34.6436H46.6211C45.9551 34.6436 45.418 35.1807 45.418 35.8467V62.4873C45.418 62.874 45.6006 63.2285 45.9121 63.4541L61.9072 75.1201C62.4443 75.5068 63.1963 75.3994 63.583 74.8623L66.3437 71.0918V71.0811C66.7305 70.5439 66.6123 69.792 66.0752 69.4053L52.4648 59.5654V35.8467C52.4756 35.1807 51.9277 34.6436 51.2725 34.6436Z" fill="black"/>
<path d="M86.4531 72.3916H80.2441C79.6426 72.3916 79.0732 72.7031 78.751 73.2187C77.3867 75.3779 75.7969 77.376 73.9707 79.2021C70.8232 82.3496 67.1602 84.8203 63.0889 86.539C58.8672 88.3222 54.3877 89.2246 49.7686 89.2246C45.1387 89.2246 40.6592 88.3222 36.4482 86.539C32.3769 84.8203 28.7139 82.3496 25.5664 79.2021C22.4189 76.0547 19.9482 72.3916 18.2295 68.3203C16.4463 64.1094 15.5439 59.6299 15.5439 55C15.5439 50.3701 16.4463 45.9013 18.2295 41.6797C19.9482 37.6084 22.4189 33.9453 25.5664 30.7978C28.7139 27.6504 32.3769 25.1797 36.4482 23.4609C40.6592 21.6777 45.1494 20.7754 49.7686 20.7754C54.3984 20.7754 58.8779 21.6777 63.0889 23.4609C67.1602 25.1797 70.8232 27.6504 73.9707 30.7978C75.7969 32.624 77.3867 34.6221 78.751 36.7812C79.0732 37.2969 79.6426 37.6084 80.2441 37.6084H86.4531C87.1943 37.6084 87.667 36.8349 87.334 36.1797C80.3301 22.2471 66.1289 13.1914 50.2734 13.0088C27.0596 12.7187 7.77734 31.7217 7.73438 54.914C7.69141 78.1494 26.5225 97.0019 49.7578 97.0019C65.8174 97.0019 80.2549 87.914 87.334 73.8203C87.667 73.165 87.1836 72.3916 86.4531 72.3916Z" fill="black"/>
</svg>
